<svg width="1200" height="630" viewBox="0 0 1200 630" fill="none" xmlns="http://www.w3.org/2000/svg">
  <rect width="1200" height="630" fill="#070A0F"/>
  <rect x="48" y="48" width="1104" height="534" rx="32" fill="url(#panel)"/>
  <circle cx="173" cy="132" r="164" fill="url(#glow)" fill-opacity="0.65"/>
  <circle cx="1064" cy="511" r="148" fill="url(#glowSoft)" fill-opacity="0.22"/>
  <path d="M129 453C129 440.85 138.85 431 151 431H317C329.15 431 339 440.85 339 453V479C339 491.15 329.15 501 317 501H151C138.85 501 129 491.15 129 479V453Z" fill="#F97316" fill-opacity="0.16"/>
  <path d="M381 177C381 164.85 390.85 155 403 155H1049C1061.15 155 1071 164.85 1071 177V453C1071 465.15 1061.15 475 1049 475H403C390.85 475 381 465.15 381 453V177Z" fill="#0F1722" stroke="#263244" stroke-width="2"/>
  <path d="M432 220H784" stroke="#FFB86B" stroke-width="16" stroke-linecap="round"/>
  <path d="M432 266H708" stroke="#D6DEE8" stroke-opacity="0.82" stroke-width="12" stroke-linecap="round"/>
  <path d="M432 319H918" stroke="#93A4B7" stroke-opacity="0.56" stroke-width="10" stroke-linecap="round"/>
  <path d="M432 363H862" stroke="#93A4B7" stroke-opacity="0.4" stroke-width="10" stroke-linecap="round"/>
  <rect x="858" y="217" width="164" height="184" rx="24" fill="#111B28" stroke="#2B384A" stroke-width="2"/>
  <rect x="895" y="252" width="90" height="18" rx="9" fill="#F97316"/>
  <rect x="895" y="286" width="68" height="18" rx="9" fill="#FFB86B" fill-opacity="0.72"/>
  <rect x="895" y="320" width="96" height="18" rx="9" fill="#D6DEE8" fill-opacity="0.18"/>
  <path d="M141 158C141 137.013 158.013 120 179 120H294C314.987 120 332 137.013 332 158V273C332 293.987 314.987 311 294 311H179C158.013 311 141 293.987 141 273V158Z" fill="#0C141E" stroke="#2A3849" stroke-width="2"/>
  <path d="M183 159L221 235H253L291 159" stroke="#F97316" stroke-width="22" stroke-linecap="round" stroke-linejoin="round"/>
  <text x="129" y="380" fill="#F8FAFC" font-family="Arial, sans-serif" font-size="58" font-weight="700" letter-spacing="2">STROYPROTEH.RU</text>
  <text x="129" y="430" fill="#D6DEE8" fill-opacity="0.86" font-family="Arial, sans-serif" font-size="28" font-weight="400" letter-spacing="5">AUTO LIFTS FOR SERVICE STATIONS</text>
  <text x="129" y="480" fill="#FFB86B" font-family="Arial, sans-serif" font-size="24" font-weight="700" letter-spacing="4">SUPPLY. INSTALLATION. SERVICE.</text>
  <defs>
    <linearGradient id="panel" x1="84" y1="72" x2="1090" y2="566" gradientUnits="userSpaceOnUse">
      <stop stop-color="#0B121A"/>
      <stop offset="1" stop-color="#0E1824"/>
    </linearGradient>
    <radialGradient id="glow" cx="0" cy="0" r="1" gradientUnits="userSpaceOnUse" gradientTransform="translate(173 132) rotate(90) scale(164)">
      <stop stop-color="#F97316"/>
      <stop offset="1" stop-color="#F97316" stop-opacity="0"/>
    </radialGradient>
    <radialGradient id="glowSoft" cx="0" cy="0" r="1" gradientUnits="userSpaceOnUse" gradientTransform="translate(1064 511) rotate(90) scale(148)">
      <stop stop-color="#FFB86B"/>
      <stop offset="1" stop-color="#FFB86B" stop-opacity="0"/>
    </radialGradient>
  </defs>
</svg>
